{"glyphs":{":":{"x_min":0,"x_max":244,"ha":244,"o":"m 122 422 q 146 422 164 405 q 181 388 181 363 q 181 339 164 322 q 146 304 122 304 q 98 304 80 322 q 63 339 63 363 q 63 388 80 405 q 98 422 122 422 z m 122 110 q 146 110 164 93 q 181 76 181 51 q 181 26 164 9 q 146 -8 122 -8 q 98 -8 80 9 q 63 26 63 51 q 63 76 80 93 q 98 110 122 110 z"},"$":{"x_min":0,"x_max":492,"ha":492,"o":"m 242 671 l 242 745 l 264 745 l 264 671 q 314 668 354 649 q 387 633 405 606 q 424 580 424 548 q 424 523 409 506 q 395 489 374 489 q 358 489 347 500 q 335 511 335 528 q 335 539 340 549 l 349 567 q 353 578 353 592 q 353 612 341 628 q 330 643 308 651 q 290 657 264 660 l 264 393 l 269 390 q 356 339 393 296 q 417 268 430 233 q 443 198 443 163 q 443 114 420 75 q 396 35 355 14 q 315 -6 264 -13 l 264 -92 l 242 -92 l 242 -14 q 196 -14 149 5 q 101 24 74 59 q 48 93 48 135 q 48 167 65 190 q 82 212 106 212 q 123 212 133 201 q 144 191 144 175 q 144 158 125 134 q 116 121 112 112 q 108 103 108 92 q 108 66 126 43 q 143 21 172 8 q 201 -3 238 -3 l 242 -3 l 242 316 l 214 332 q 175 355 154 370 q 133 385 117 403 q 73 452 73 514 q 73 553 92 587 q 110 621 143 641 q 186 667 242 671 z m 242 661 q 209 659 187 648 q 162 636 146 609 q 130 582 130 548 q 130 508 153 475 q 166 457 182 444 q 198 432 237 408 l 242 405 z m 264 -2 q 287 0 301 6 q 315 11 328 21 q 350 39 362 69 q 375 99 375 133 q 375 231 264 302 z"},"?":{"x_min":0,"x_max":461,"ha":461,"o":"m 156 156 l 140 156 l 140 401 l 156 401 q 161 361 173 340 q 186 318 206 305 q 226 292 249 292 q 294 292 320 335 q 346 378 346 452 q 346 509 331 556 q 315 603 288 631 q 273 646 254 655 q 236 663 218 663 q 194 663 177 648 q 160 635 155 597 q 153 583 150 575 q 147 568 142 563 q 131 555 119 555 q 103 555 94 566 q 84 576 84 593 q 84 621 108 641 q 127 656 154 665 q 181 673 210 673 q 287 673 347 620 q 383 587 403 543 q 423 499 423 452 q 423 410 407 375 q 391 341 361 318 q 339 301 311 291 q 282 281 256 281 q 229 281 203 290 q 178 299 156 317 z m 150 110 q 175 110 193 93 q 210 76 210 51 q 210 26 193 9 q 175 -8 150 -8 q 126 -8 109 9 q 91 26 91 51 q 91 76 109 93 q 126 110 150 110 z"},"<":{"x_min":0,"x_max":492,"ha":492,"o":"m 453 614 l 453 575 l 143 374 l 453 167 l 453 64 l 39 341 l 39 348 z"},"'":{"x_min":0,"x_max":139,"ha":139,"o":"m 75 429 l 64 429 l 40 581 q 37 602 37 619 q 37 643 46 659 q 55 675 68 675 q 83 675 93 660 q 102 644 102 619 q 102 604 99 581 z"},"=":{"x_min":0,"x_max":492,"ha":492,"o":"m 32 388 l 459 388 l 459 358 l 32 358 z m 32 295 l 459 295 l 459 265 l 32 265 z"},"a":{"x_min":0,"x_max":427,"ha":427,"o":"m 431 47 l 439 42 q 421 -9 358 -9 q 324 -9 301 8 q 286 20 270 47 q 237 18 220 9 q 188 -9 146 -9 q 93 -9 61 17 q 30 43 30 87 q 30 127 56 155 q 70 170 89 179 q 108 188 145 197 q 187 208 207 215 q 228 223 241 233 q 257 244 263 259 q 269 274 269 301 q 269 358 247 385 q 237 397 222 404 q 207 412 190 412 q 170 412 154 401 q 139 391 131 373 l 119 345 q 109 322 83 322 q 67 322 56 333 q 44 344 44 360 q 44 385 80 402 q 99 411 127 417 q 155 422 182 422 q 212 422 245 415 q 277 407 299 395 q 331 376 339 348 q 343 333 343 298 l 343 118 q 343 72 347 55 q 355 21 387 21 q 402 21 410 26 q 419 31 431 47 z m 270 240 q 243 218 211 201 q 176 182 162 172 q 148 163 137 149 q 114 121 114 83 q 114 51 132 30 q 150 9 177 9 q 201 9 222 24 q 244 39 254 63 q 270 96 270 158 z"},"L":{"x_min":0,"x_max":610,"ha":610,"o":"m 24 0 l 24 12 q 73 12 100 40 q 115 55 121 79 q 126 104 126 153 l 126 513 q 126 565 120 590 q 114 614 98 630 q 84 643 67 648 q 50 654 24 655 l 24 667 l 336 667 l 336 655 q 309 654 292 648 q 275 642 262 629 q 245 613 239 589 q 233 564 233 513 l 233 231 q 233 167 237 135 q 240 103 250 83 q 267 48 301 31 q 334 15 390 15 q 448 15 488 31 q 528 46 553 78 q 570 100 581 128 q 592 156 602 201 l 613 200 l 607 0 z"},"3":{"x_min":0,"x_max":492,"ha":492,"o":"m 307 358 q 452 318 452 193 q 452 150 434 110 q 407 54 352 23 q 296 -9 223 -9 q 179 -9 141 4 q 103 16 79 38 q 61 55 50 79 q 40 102 40 126 q 40 167 67 196 q 95 225 136 225 l 138 216 q 115 198 105 178 q 96 159 96 132 q 96 90 120 57 q 138 31 167 17 q 195 3 229 3 q 295 3 334 55 q 354 79 365 114 q 375 148 375 183 q 375 222 362 259 q 349 295 327 317 q 300 342 270 342 q 261 342 253 339 q 245 336 232 326 q 207 308 188 308 q 174 308 165 316 q 155 325 155 337 q 155 352 167 362 q 179 371 198 371 q 207 371 214 369 l 233 364 q 242 362 252 362 q 286 362 316 392 q 359 434 359 504 q 359 538 348 569 q 337 601 318 624 q 284 664 235 664 q 194 664 167 638 q 141 613 141 573 q 141 543 156 522 q 170 501 194 495 l 196 486 q 178 479 161 479 q 126 479 104 500 q 83 521 83 555 q 83 604 129 640 q 176 675 242 675 q 281 675 318 663 q 355 650 381 628 q 406 606 419 577 q 433 547 433 514 q 433 444 379 398 q 354 377 307 358 z"},";":{"x_min":0,"x_max":238,"ha":238,"o":"m 49 -146 l 44 -135 q 76 -122 95 -107 q 113 -93 126 -70 q 147 -35 150 -1 q 137 -6 127 -6 q 100 -6 83 10 q 66 26 66 51 q 66 76 83 93 q 100 111 124 111 q 153 111 171 87 q 189 64 189 25 q 189 -13 171 -50 q 153 -87 123 -111 q 91 -137 49 -146 z m 114 422 q 139 422 156 405 q 173 388 173 363 q 173 339 156 322 q 139 304 114 304 q 89 304 72 321 q 55 338 55 363 q 55 388 72 405 q 89 422 114 422 z"},"J":{"x_min":0,"x_max":336,"ha":336,"o":"m 319 667 l 319 655 q 293 654 278 649 q 262 644 249 633 q 230 617 223 592 q 216 567 216 516 l 216 80 q 216 13 207 -22 q 197 -58 171 -83 q 145 -108 101 -123 q 57 -139 11 -139 q -16 -139 -42 -133 q -68 -127 -83 -117 q -112 -100 -112 -70 q -112 -53 -101 -42 q -90 -30 -72 -30 q -54 -30 -42 -42 q -36 -48 -32 -56 q -27 -65 -19 -88 q -10 -109 1 -118 q 12 -127 30 -127 q 54 -127 71 -112 q 88 -97 98 -68 q 110 -28 110 84 l 110 516 q 110 547 105 572 q 100 604 82 622 q 54 651 5 655 l 5 667 z"},"V":{"x_min":0,"x_max":678,"ha":678,"o":"m -17 667 l 306 667 l 306 655 q 269 652 253 644 q 238 637 229 621 q 219 606 219 588 q 219 575 222 565 q 224 556 236 523 l 381 130 l 521 475 q 550 547 550 581 q 550 599 544 615 q 539 631 529 640 q 519 648 507 652 q 496 655 477 655 l 477 667 l 694 667 l 694 655 q 667 653 648 642 q 628 631 610 609 q 598 594 584 567 q 571 540 547 483 l 347 0 l 327 0 l 132 499 q 94 597 71 624 q 57 640 35 648 q 14 655 -17 655 z"},"\"":{"x_min":0,"x_max":244,"ha":244,"o":"m 75 429 l 64 429 l 40 581 q 37 602 37 619 q 37 643 46 659 q 55 675 68 675 q 83 675 93 660 q 102 644 102 619 q 102 604 99 581 z m 179 429 l 168 429 l 145 581 q 141 602 141 619 q 141 643 150 659 q 160 675 173 675 q 188 675 197 660 q 207 644 207 619 q 207 604 203 581 z"},"7":{"x_min":0,"x_max":492,"ha":492,"o":"m 441 657 l 204 54 l 194 29 q 186 9 175 0 q 165 -9 149 -9 q 132 -9 120 2 q 107 13 107 28 q 107 42 120 65 l 130 84 l 390 579 l 177 579 q 151 579 137 576 q 123 574 112 567 q 97 557 87 542 q 78 527 62 491 l 60 485 l 50 485 l 94 680 l 104 680 q 107 664 115 660 q 122 656 146 656 z"},"S":{"x_min":0,"x_max":517,"ha":517,"o":"m 48 1 l 49 203 l 61 203 q 81 126 109 82 q 163 0 243 0 q 299 0 336 37 q 373 75 373 132 q 373 157 365 183 q 356 209 343 228 q 329 247 303 264 q 277 282 225 309 q 178 332 154 348 q 129 364 114 381 q 72 427 72 493 q 72 533 88 571 q 104 608 134 635 q 186 683 256 683 q 279 683 299 678 q 318 674 351 660 q 375 650 384 648 q 393 645 400 645 q 417 645 423 670 l 434 670 l 438 476 l 426 476 q 413 522 404 547 q 394 572 381 593 q 357 631 328 649 q 299 667 262 667 q 207 667 175 630 q 162 615 155 595 q 147 574 147 554 q 147 472 252 422 l 321 389 q 400 352 436 306 q 476 255 476 188 q 476 143 458 102 q 432 45 381 14 q 331 -17 262 -17 q 199 -17 141 8 q 110 21 104 23 q 99 25 91 25 q 68 25 59 1 z"},"}":{"x_min":0,"x_max":293,"ha":293,"o":"m 255 297 q 216 292 200 273 q 183 255 183 216 l 185 158 l 186 77 l 187 23 q 187 -31 171 -63 q 155 -96 123 -108 q 92 -120 40 -120 l 29 -120 l 29 -107 q 46 -107 62 -100 q 78 -93 89 -81 q 106 -62 110 -21 q 112 -6 112 69 l 112 138 l 113 188 q 113 221 119 241 q 126 262 141 277 q 161 296 189 300 l 189 304 q 156 310 137 331 q 121 348 116 369 q 112 390 112 448 l 112 521 l 112 542 q 112 587 111 603 q 109 625 102 639 q 96 653 83 665 q 72 674 61 678 q 50 682 29 683 l 29 697 l 36 696 l 56 696 q 77 696 100 691 q 128 687 147 670 q 166 653 175 625 q 186 593 186 518 l 184 438 l 184 388 q 184 361 190 346 q 196 331 211 322 q 229 311 255 307 z"},"Z":{"x_min":0,"x_max":613,"ha":613,"o":"m 36 667 l 559 667 l 559 655 l 136 15 l 292 15 q 429 15 492 54 q 542 85 572 148 q 585 175 591 210 l 603 210 l 587 0 l 10 0 l 10 11 l 436 651 l 296 651 q 221 651 177 640 q 133 629 99 602 q 70 580 55 552 q 41 525 36 487 l 24 488 z"},"x":{"x_min":0,"x_max":446,"ha":446,"o":"m 20 415 l 209 415 l 209 405 q 192 402 183 394 q 173 386 173 374 q 173 365 178 354 q 183 344 197 320 l 209 300 l 239 251 l 298 326 q 314 346 320 356 q 326 367 326 376 q 326 400 298 405 l 298 415 l 427 415 l 427 405 q 397 398 372 379 q 347 360 316 322 l 250 237 l 348 83 q 371 47 391 30 q 402 21 412 16 q 421 12 437 10 l 437 0 l 241 0 l 241 10 q 258 13 266 16 q 280 24 280 39 q 280 53 262 81 l 251 97 l 201 176 l 137 96 q 120 75 114 65 q 108 54 108 44 q 108 18 148 10 l 148 0 l 11 0 l 11 10 q 25 12 34 16 q 43 20 55 29 q 75 44 105 83 l 192 191 l 101 329 q 74 370 59 384 q 44 398 20 405 z"},")":{"x_min":0,"x_max":293,"ha":293,"o":"m 13 697 l 28 697 q 101 619 143 542 q 175 481 193 415 q 211 349 211 290 q 211 231 193 163 q 174 94 143 35 q 122 -4 95 -40 q 69 -75 28 -120 l 13 -120 l 21 -105 q 57 -37 76 12 q 96 62 106 116 q 115 155 120 204 q 125 254 125 289 q 125 329 118 386 q 108 473 88 534 q 67 595 21 682 z"},"&":{"x_min":0,"x_max":673,"ha":673,"o":"m 245 406 l 408 179 q 442 243 456 277 q 469 312 469 335 q 469 383 401 393 l 401 402 l 591 402 l 591 393 q 569 391 555 385 q 541 379 528 368 q 503 344 466 268 l 451 237 q 439 210 416 168 q 434 144 459 115 q 484 87 504 69 q 532 44 552 32 q 573 21 593 21 q 614 21 628 33 q 642 44 653 71 l 663 66 q 638 -17 558 -17 q 531 -17 501 -6 q 472 4 448 22 q 412 49 373 96 q 351 64 337 49 q 309 17 271 0 q 233 -17 190 -17 q 151 -17 114 -2 q 77 13 54 38 q 10 84 10 155 q 10 225 52 282 q 69 305 92 324 q 115 344 156 371 l 164 376 q 133 419 121 444 q 91 501 91 547 q 91 575 104 603 q 122 640 155 659 q 188 678 234 678 q 295 678 334 645 q 373 612 373 560 q 373 522 353 492 q 333 463 288 435 q 256 414 245 406 z m 174 362 q 134 337 111 293 q 89 249 89 194 q 89 156 101 121 q 112 86 132 62 q 151 40 177 27 q 203 15 232 15 q 277 15 313 43 q 326 54 337 67 q 348 81 364 106 z m 235 417 q 258 435 270 448 q 281 462 290 481 q 307 517 307 559 q 307 607 284 636 q 260 665 221 665 q 187 665 166 643 q 145 621 145 586 q 145 565 153 544 q 162 523 186 486 q 208 451 235 417 z"},"_":{"x_min":0,"x_max":500,"ha":500,"o":"m 22 -88 l 478 -88 l 478 -132 l 22 -132 z"},"v":{"x_min":0,"x_max":414,"ha":414,"o":"m -7 415 l 182 415 l 182 405 q 161 400 153 395 q 137 385 137 364 q 137 351 142 333 q 147 315 160 282 l 239 81 l 319 290 q 336 336 336 359 q 336 383 321 395 q 313 400 292 405 l 292 415 l 427 415 l 427 405 q 400 398 383 380 q 362 358 335 288 l 222 0 l 196 0 l 73 303 q 45 373 33 387 q 26 395 18 399 q 9 402 -7 405 z"},"O":{"x_min":0,"x_max":811,"ha":811,"o":"m 47 329 q 47 411 82 481 q 117 551 185 603 q 235 642 293 662 q 351 683 410 683 q 485 683 556 650 q 626 617 679 557 q 765 459 765 335 q 765 272 742 214 q 720 156 677 108 q 624 49 552 16 q 480 -17 401 -17 q 324 -17 253 15 q 182 47 131 105 q 90 150 69 208 q 47 266 47 329 z m 165 321 q 165 180 242 83 q 277 39 316 19 q 354 0 405 0 q 457 0 495 19 q 534 39 569 83 q 646 180 646 323 q 646 402 625 472 q 604 542 565 591 q 534 631 496 649 q 458 667 405 667 q 354 667 316 649 q 278 631 246 591 q 207 542 186 472 q 165 402 165 321 z"},"(":{"x_min":0,"x_max":293,"ha":293,"o":"m 280 -120 l 265 -120 q 192 -42 150 35 q 118 96 100 162 q 82 228 82 287 q 82 345 100 414 q 119 482 150 542 q 171 581 198 616 q 224 652 265 697 l 280 697 l 272 682 q 236 614 217 564 q 197 515 187 461 q 179 422 173 372 q 168 323 168 289 q 168 248 175 190 q 185 104 205 43 q 226 -19 272 -105 z"},"C":{"x_min":0,"x_max":669,"ha":669,"o":"m 625 670 l 630 452 l 619 452 q 614 466 611 473 q 594 520 583 543 q 564 584 528 618 q 500 644 471 656 q 442 667 405 667 q 350 667 310 644 q 274 623 243 583 q 212 544 193 494 q 165 423 165 333 q 165 256 184 194 q 203 133 240 91 q 307 14 418 14 q 474 14 519 33 q 563 53 587 88 q 616 128 628 197 l 640 195 q 630 118 598 73 q 566 29 511 6 q 457 -17 384 -17 q 317 -17 255 3 q 157 36 102 120 q 47 204 47 321 q 47 410 79 486 q 111 561 169 607 q 213 642 275 663 q 337 684 399 684 q 458 684 524 661 l 564 648 q 576 644 584 644 q 597 644 604 654 q 608 659 613 670 z"},"W":{"x_min":0,"x_max":1051,"ha":1051,"o":"m -17 667 l 291 667 l 291 655 q 248 655 232 649 q 219 643 210 630 q 202 617 202 600 q 202 580 218 543 l 230 513 l 382 142 l 488 462 q 509 523 509 554 q 509 576 501 597 q 493 619 479 632 q 467 645 450 650 q 434 655 409 655 l 409 667 l 723 667 l 723 655 q 694 655 681 653 q 668 651 657 645 q 642 636 633 620 q 624 604 624 584 q 624 567 638 523 l 758 136 l 892 466 q 923 542 923 583 q 923 626 895 645 q 877 655 841 655 l 841 667 l 1067 667 l 1067 655 q 1035 652 1018 643 q 1001 634 984 610 q 960 576 923 486 l 723 0 l 703 0 l 529 520 l 353 0 l 331 0 l 112 525 l 98 561 q 83 597 72 613 q 62 629 47 639 q 36 646 22 650 q 8 653 -17 655 z"},"A":{"x_min":0,"x_max":693,"ha":693,"o":"m 704 0 l 383 0 l 383 11 q 426 15 443 26 q 474 45 474 79 q 474 99 460 132 l 452 153 l 405 268 l 190 268 l 165 201 l 152 170 q 130 117 130 86 q 130 68 138 52 q 146 37 160 27 q 179 14 209 11 l 209 0 l -10 0 l -10 11 q 16 13 36 24 q 55 35 74 60 q 89 80 104 112 q 119 143 144 206 l 322 667 l 350 667 l 562 153 q 586 95 601 70 q 615 45 631 33 q 643 24 658 19 q 673 15 704 11 z m 397 288 l 294 541 l 198 288 z"},"f":{"x_min":0,"x_max":280,"ha":280,"o":"m 159 396 l 159 141 l 159 104 q 159 71 163 55 q 167 40 178 30 q 192 17 229 10 l 229 0 l 13 0 l 13 10 q 42 14 55 21 q 68 28 76 45 q 81 56 83 79 q 85 102 85 145 l 85 396 l 15 396 l 15 415 l 85 415 l 85 534 q 85 577 96 602 q 107 627 136 648 q 161 667 198 677 q 235 688 276 688 q 314 688 337 674 q 360 661 360 639 q 360 625 350 615 q 341 605 327 605 q 314 605 304 612 q 294 619 285 635 q 271 658 262 665 q 253 672 238 672 q 220 672 203 664 q 187 657 177 645 q 167 631 163 609 q 159 586 159 544 l 159 415 l 255 415 l 255 396 z"},"Q":{"x_min":0,"x_max":810,"ha":810,"o":"m 511 -1 q 540 -20 576 -30 q 612 -41 648 -41 q 679 -41 706 -33 q 734 -26 750 -14 q 765 -3 774 11 q 782 25 789 51 l 797 50 q 795 14 785 -10 q 775 -35 753 -58 q 695 -119 585 -119 q 521 -119 478 -96 q 438 -75 394 -20 l 391 -17 q 348 -17 302 -3 q 256 10 215 35 q 135 83 91 160 q 47 238 47 329 q 47 411 82 481 q 117 551 185 603 q 234 642 292 662 q 351 683 410 683 q 479 683 545 655 q 595 633 638 596 q 681 560 711 513 q 764 431 764 334 q 764 272 741 215 q 719 157 677 108 q 643 68 604 43 q 565 18 511 -1 z m 239 84 q 274 94 310 94 q 353 94 393 77 q 410 70 428 58 q 446 46 487 17 l 491 14 q 523 31 546 54 q 569 77 591 114 q 646 203 646 323 q 646 401 624 472 q 603 542 564 591 q 533 630 495 649 q 457 667 405 667 q 354 667 315 649 q 277 631 246 591 q 208 542 186 472 q 165 401 165 323 q 165 251 183 194 q 200 137 239 84 z m 380 -3 l 376 1 q 342 42 318 59 q 294 75 270 75 q 260 75 249 71 q 280 36 309 19 q 339 2 380 -3 z"},"w":{"x_min":0,"x_max":614,"ha":614,"o":"m -9 415 l 181 415 l 181 405 q 126 402 126 362 q 126 343 146 281 l 205 99 l 288 319 q 298 345 298 360 q 298 402 247 405 l 247 415 l 434 415 l 434 405 q 410 401 400 395 q 384 384 384 362 q 384 345 394 314 l 458 99 l 534 292 q 549 330 549 350 q 549 376 530 390 q 521 398 497 405 l 497 415 l 640 415 l 640 405 q 619 405 603 391 q 592 383 582 366 q 573 349 560 315 l 549 291 l 434 0 l 417 0 l 310 326 l 181 0 l 164 0 l 67 296 l 55 332 q 39 380 22 393 q 12 400 -9 405 z"},"-":{"x_min":0,"x_max":251,"ha":251,"o":"m 17 249 l 234 249 l 234 175 l 17 175 z"},"E":{"x_min":0,"x_max":623,"ha":623,"o":"m 549 667 l 557 505 l 546 505 q 540 546 525 573 q 510 600 482 620 q 459 637 428 644 q 397 651 345 651 l 233 651 l 233 358 l 263 358 q 307 358 330 364 q 352 370 366 385 q 380 399 386 419 q 393 438 397 476 l 409 475 l 407 213 l 396 213 q 391 251 383 274 q 374 297 359 313 q 344 329 321 336 q 297 343 261 343 l 233 343 l 233 231 q 233 165 237 134 q 240 104 250 83 q 267 48 301 31 q 334 15 390 15 q 449 15 488 30 q 528 45 553 76 q 570 97 581 124 q 592 151 602 195 l 613 194 l 606 0 l 24 0 l 24 11 q 52 13 69 19 q 86 25 100 40 q 115 55 121 79 q 126 104 126 153 l 126 513 q 126 563 121 587 q 115 611 100 627 q 87 641 70 647 q 52 654 24 655 l 24 667 z"},"s":{"x_min":0,"x_max":354,"ha":354,"o":"m 47 0 l 47 138 l 55 138 q 68 87 89 57 q 126 2 177 2 q 208 2 230 21 q 254 41 254 79 q 254 109 237 132 q 227 145 212 155 q 197 165 162 184 q 101 216 80 238 q 51 270 51 311 q 51 354 80 386 q 114 422 169 422 q 194 422 216 414 l 232 406 q 240 403 246 403 q 255 403 264 418 l 273 418 l 279 307 l 269 307 q 263 331 257 345 q 251 359 240 372 q 225 391 205 401 q 185 412 165 412 q 138 412 118 392 q 99 372 99 343 q 99 319 116 300 q 134 281 170 265 l 222 241 q 268 220 291 189 q 314 158 314 115 q 314 64 281 30 q 243 -9 183 -9 q 151 -9 118 4 q 96 12 92 13 q 87 15 81 15 q 63 15 55 0 z"},">":{"x_min":0,"x_max":492,"ha":492,"o":"m 39 64 l 39 103 l 348 304 l 39 511 l 39 614 l 453 336 l 453 330 z"},"l":{"x_min":0,"x_max":242,"ha":242,"o":"m 19 668 l 159 686 l 159 141 l 159 104 q 159 71 163 55 q 167 40 178 30 q 192 17 229 10 l 229 0 l 13 0 l 13 10 q 42 14 55 21 q 68 28 76 45 q 81 56 83 79 q 85 102 85 145 l 85 528 q 85 578 83 598 q 81 619 72 631 q 64 645 52 651 q 41 657 19 658 z"},"8":{"x_min":0,"x_max":492,"ha":492,"o":"m 301 368 q 338 347 360 331 q 382 315 399 296 q 446 244 446 173 q 446 96 395 45 q 340 -9 253 -9 q 156 -9 96 49 q 46 98 46 165 q 46 237 102 284 q 125 305 187 336 q 130 364 100 401 q 61 449 61 510 q 61 575 105 621 q 130 647 165 661 q 201 675 241 675 q 277 675 311 664 q 345 652 370 632 q 418 591 418 527 q 418 467 376 424 q 355 402 301 368 z m 279 377 q 312 403 328 439 q 344 475 344 520 q 344 583 312 623 q 280 664 230 664 q 183 664 153 629 q 122 595 122 542 q 122 472 182 426 q 214 401 279 377 z m 206 327 q 160 292 137 250 q 115 208 115 155 q 115 90 151 48 q 189 3 252 3 q 307 3 339 38 q 356 57 366 83 q 376 110 376 140 q 376 208 326 256 q 288 293 206 327 z"},"\\":{"x_min":0,"x_max":293,"ha":293,"o":"m 326 -120 l 294 -120 l -6 697 l 25 697 z"},"e":{"x_min":0,"x_max":451,"ha":451,"o":"m 116 266 q 114 242 114 231 q 114 188 127 148 q 139 107 161 81 q 183 53 215 38 q 248 22 283 22 q 310 22 333 31 q 357 40 373 55 q 390 72 403 110 l 413 106 q 400 49 358 20 q 316 -9 247 -9 q 187 -9 144 10 q 101 29 71 69 q 30 124 30 205 q 30 314 108 377 q 166 422 239 422 q 278 422 311 408 q 344 395 367 368 q 403 327 403 266 z m 330 285 q 327 333 312 360 q 299 384 277 398 q 255 412 230 412 q 188 412 156 375 q 125 339 119 285 z"},"b":{"x_min":0,"x_max":512,"ha":512,"o":"m 156 361 q 176 387 195 399 q 232 423 285 423 q 359 423 414 375 q 482 317 482 211 q 482 105 417 44 q 360 -9 272 -9 q 226 -9 193 4 l 166 15 q 155 20 146 20 q 121 20 102 -21 l 83 -21 l 83 552 q 83 606 65 630 q 48 654 7 654 l 7 666 l 156 686 z m 156 213 q 156 161 162 117 q 167 73 177 53 q 188 29 210 16 q 232 2 261 2 q 320 2 359 59 q 398 115 398 203 q 398 249 385 290 q 373 331 349 360 q 331 384 308 396 q 286 409 262 409 q 234 409 209 391 q 185 374 173 346 q 156 305 156 213 z"},"%":{"x_min":0,"x_max":740,"ha":740,"o":"m 111 -93 l 93 -79 l 544 536 l 527 526 q 477 500 443 490 q 410 480 372 480 q 352 480 332 484 q 348 458 354 439 q 360 421 360 398 q 360 342 320 296 q 295 266 260 250 q 226 234 188 234 q 151 234 118 248 q 84 263 58 289 q 13 335 13 395 q 13 424 25 453 q 37 481 58 505 q 83 532 116 547 q 150 562 187 562 q 211 562 233 555 q 254 549 281 534 q 314 514 330 508 q 346 503 369 503 q 428 503 501 540 q 549 564 604 612 l 633 612 l 633 605 z m 83 397 q 83 362 94 330 q 104 298 122 277 q 151 245 190 245 q 224 245 249 273 q 289 318 289 396 q 289 478 249 521 q 221 551 184 551 q 148 551 120 517 q 103 496 93 464 q 83 432 83 397 z m 384 153 q 384 216 429 263 q 482 319 557 319 q 630 319 683 262 q 726 215 726 157 q 726 78 662 28 q 614 -9 553 -9 q 520 -9 488 4 q 457 17 432 40 q 384 85 384 153 z m 454 154 q 454 119 465 87 q 475 55 493 34 q 522 2 561 2 q 595 2 620 30 q 660 75 660 153 q 660 235 620 278 q 592 308 555 308 q 519 308 491 274 q 474 253 464 221 q 454 188 454 154 z"},"m":{"x_min":0,"x_max":800,"ha":800,"o":"m 152 422 q 161 388 164 354 q 194 387 233 405 q 271 422 312 422 q 358 422 389 399 q 408 385 432 350 q 469 387 506 405 q 544 422 587 422 q 646 422 683 390 q 720 358 720 307 l 720 141 l 720 104 q 720 71 724 55 q 728 40 739 30 q 753 17 790 10 l 790 0 l 574 0 l 574 10 q 604 14 616 21 q 628 28 637 45 q 642 56 644 79 q 646 102 646 144 l 646 237 q 646 292 643 316 q 640 341 630 359 q 607 400 551 400 q 490 400 463 355 q 439 317 439 235 l 439 141 l 439 104 q 439 71 443 55 q 447 40 458 30 q 472 17 509 10 l 509 0 l 293 0 l 293 10 q 323 14 335 21 q 348 28 356 45 q 361 56 364 79 q 366 102 366 144 l 366 234 q 366 292 362 318 q 358 345 348 361 q 337 379 318 389 q 298 399 274 399 q 246 399 222 386 q 197 373 183 350 q 170 330 164 302 q 159 274 159 229 l 159 140 l 159 104 q 159 71 163 55 q 167 40 178 30 q 192 17 229 10 l 229 0 l 13 0 l 13 10 q 42 14 55 21 q 68 28 76 45 q 81 56 83 79 q 85 102 85 145 l 85 265 q 85 315 83 336 q 81 356 72 369 q 64 382 52 388 q 41 395 19 396 l 19 406 z"},"#":{"x_min":0,"x_max":492,"ha":492,"o":"m 341 229 l 309 0 l 277 0 l 309 229 l 156 229 l 124 0 l 92 0 l 125 229 l 27 229 l 31 258 l 128 258 l 152 422 l 54 422 l 58 451 l 156 451 l 186 667 l 217 667 l 187 451 l 340 451 l 371 667 l 402 667 l 372 451 l 464 451 l 460 422 l 368 422 l 345 258 l 437 258 l 433 229 z m 313 258 l 336 422 l 183 422 l 160 258 z"},",":{"x_min":0,"x_max":238,"ha":238,"o":"m 49 -146 l 44 -135 q 76 -122 95 -107 q 113 -93 126 -70 q 147 -35 150 -1 q 137 -6 127 -6 q 100 -6 83 10 q 66 26 66 51 q 66 76 83 93 q 100 111 124 111 q 153 111 171 87 q 189 64 189 25 q 189 -13 171 -50 q 153 -87 123 -111 q 91 -137 49 -146 z"},"n":{"x_min":0,"x_max":521,"ha":521,"o":"m 152 423 q 159 395 159 371 l 159 363 q 219 422 303 422 q 365 422 403 393 q 441 364 441 311 l 441 104 q 441 71 445 55 q 449 40 460 30 q 474 17 510 10 l 510 0 l 295 0 l 295 10 q 324 14 337 21 q 350 28 357 45 q 363 56 365 79 q 367 102 367 144 l 367 248 q 367 301 364 326 q 360 351 350 366 q 338 383 317 392 q 296 402 271 402 q 244 402 220 391 q 196 380 183 362 q 168 342 163 318 q 159 293 159 236 l 159 140 l 159 104 q 159 71 163 55 q 167 40 178 30 q 192 17 229 10 l 229 0 l 13 0 l 13 10 q 42 14 55 21 q 68 28 76 45 q 81 56 83 79 q 85 102 85 145 l 85 265 q 85 315 83 336 q 81 356 72 369 q 64 382 52 388 q 41 395 19 396 l 19 406 z"},"h":{"x_min":0,"x_max":524,"ha":524,"o":"m 159 686 l 159 352 q 176 373 189 384 q 202 396 221 405 q 256 422 302 422 q 359 422 397 399 q 424 382 434 358 q 444 333 444 284 l 444 141 l 444 104 q 444 71 448 55 q 452 40 463 30 q 477 17 514 10 l 514 0 l 298 0 l 298 10 q 324 13 335 18 q 346 23 355 35 q 364 47 367 68 q 371 89 371 130 l 371 285 q 371 320 365 340 q 360 361 347 376 q 322 405 277 405 q 159 405 159 218 l 159 140 l 159 104 q 159 71 163 55 q 167 40 178 30 q 192 17 229 10 l 229 0 l 13 0 l 13 10 q 42 14 55 21 q 68 28 76 45 q 81 56 83 79 q 85 102 85 145 l 85 528 q 85 578 83 598 q 81 619 72 631 q 64 645 52 651 q 41 657 19 658 l 19 668 z"},"z":{"x_min":0,"x_max":401,"ha":401,"o":"m 52 415 l 378 415 l 378 405 l 105 13 l 171 13 q 228 13 264 19 q 300 24 320 35 q 360 57 378 114 l 388 112 l 378 0 l 13 0 l 13 10 l 286 402 l 179 402 q 140 402 118 395 q 97 387 81 369 q 65 351 51 312 l 42 312 z"},"B":{"x_min":0,"x_max":673,"ha":673,"o":"m 24 0 l 24 11 q 52 13 70 19 q 87 26 100 40 q 116 55 121 79 q 126 103 126 153 l 126 513 q 126 563 121 587 q 116 611 100 627 q 87 641 69 647 q 52 654 24 655 l 24 667 l 345 667 q 394 667 409 666 q 464 661 501 639 q 533 620 550 588 q 567 556 567 517 q 567 453 528 412 q 514 396 496 386 q 478 376 443 364 q 490 356 516 347 q 542 338 563 321 q 594 296 612 258 q 629 220 629 176 q 629 132 611 95 q 593 58 562 36 q 533 16 493 8 q 453 0 381 0 z m 233 651 l 233 361 l 273 361 q 301 361 331 365 q 356 369 372 375 q 388 380 401 389 q 426 408 440 437 q 453 466 453 501 q 453 538 439 572 q 425 605 402 624 q 382 640 357 646 q 331 651 279 651 z m 233 346 l 233 145 q 233 108 239 86 q 244 63 255 48 q 280 15 341 15 q 419 15 465 58 q 511 101 511 175 q 511 218 497 254 q 482 291 458 310 q 415 346 321 346 z"},"K":{"x_min":0,"x_max":708,"ha":708,"o":"m 233 340 l 440 545 q 471 575 478 586 q 486 597 486 610 q 486 634 462 646 q 450 652 421 655 l 421 667 l 632 667 l 632 655 q 610 653 596 648 q 582 643 564 631 q 545 617 499 573 l 341 421 l 566 134 l 594 98 q 625 60 658 39 q 678 25 693 20 q 708 14 731 11 l 731 0 l 408 0 l 408 11 q 445 14 461 23 q 477 33 477 51 q 477 70 457 101 q 447 115 420 151 q 394 188 375 210 l 265 346 l 233 315 l 233 153 q 233 104 239 79 q 245 55 260 40 q 273 26 290 19 q 308 13 336 11 l 336 0 l 24 0 l 24 11 q 52 13 70 19 q 87 26 100 40 q 116 55 121 79 q 126 103 126 153 l 126 513 q 126 563 121 587 q 116 611 100 627 q 87 641 69 647 q 52 654 24 655 l 24 667 l 336 667 l 336 655 q 308 654 291 647 q 273 641 260 627 q 245 611 239 587 q 233 563 233 513 z"},"R":{"x_min":0,"x_max":647,"ha":647,"o":"m 233 326 l 233 153 q 233 104 239 79 q 245 55 260 40 q 273 26 290 19 q 308 13 336 11 l 336 0 l 24 0 l 24 11 q 52 13 70 19 q 87 26 100 40 q 116 55 121 79 q 126 103 126 153 l 126 513 q 126 563 121 587 q 116 611 100 627 q 87 641 69 647 q 52 654 24 655 l 24 667 l 259 667 q 318 667 337 666 q 413 663 456 646 q 504 626 531 587 q 557 548 557 497 q 557 421 500 375 q 482 361 461 353 q 439 344 404 336 q 433 324 447 311 q 458 300 468 285 q 477 270 496 230 q 539 141 561 100 q 583 59 599 40 q 611 25 622 19 q 634 13 654 11 l 654 0 l 492 0 q 479 27 476 34 l 442 112 q 411 182 380 235 q 349 289 323 308 q 310 318 294 322 q 279 326 257 326 z m 233 337 l 252 337 q 312 337 339 344 q 365 351 388 372 q 439 421 439 493 q 439 532 424 566 q 409 600 383 622 q 362 638 334 645 q 306 651 253 651 l 233 651 z"},"T":{"x_min":0,"x_max":687,"ha":687,"o":"m 288 651 q 257 651 222 649 q 146 646 110 630 q 73 615 49 578 q 27 544 15 485 l 4 486 l 13 667 l 673 667 l 682 486 l 671 485 q 658 553 630 588 q 602 623 548 638 q 502 651 394 651 l 394 153 q 394 104 400 79 q 405 55 420 40 q 434 25 451 19 q 469 13 497 11 l 497 0 l 185 0 l 185 11 q 213 13 230 19 q 248 25 261 40 q 276 55 282 79 q 288 103 288 153 z"},"P":{"x_min":0,"x_max":578,"ha":578,"o":"m 233 329 l 233 153 q 233 104 239 79 q 245 55 260 40 q 273 26 290 19 q 308 13 336 11 l 336 0 l 24 0 l 24 11 q 52 13 70 19 q 87 26 100 40 q 116 55 121 79 q 126 103 126 153 l 126 513 q 126 555 123 578 q 119 601 110 615 q 98 634 78 644 q 59 653 27 655 l 24 655 l 24 667 l 318 667 q 396 667 432 659 q 469 651 499 627 q 568 575 568 487 q 568 397 498 356 q 461 334 409 330 q 393 329 329 329 z m 233 344 l 281 344 q 330 344 356 351 q 382 358 402 377 q 450 421 450 493 q 450 533 436 567 q 422 600 396 621 q 367 646 326 650 q 314 651 274 651 l 233 651 z"},"|":{"x_min":0,"x_max":500,"ha":500,"o":"m 223 744 l 278 744 l 278 -244 l 223 -244 z"},"t":{"x_min":0,"x_max":259,"ha":259,"o":"m 139 415 l 264 415 l 264 396 l 139 396 l 139 112 q 139 61 157 39 q 166 27 181 20 q 196 13 214 13 q 236 13 250 22 q 265 31 283 55 l 290 49 q 274 20 245 5 q 216 -9 172 -9 q 115 -9 88 14 q 74 25 70 42 q 65 58 65 101 l 65 396 l 13 396 l 13 404 q 45 415 72 444 q 88 462 98 480 q 107 498 116 526 l 121 542 l 139 542 z"},"M":{"x_min":0,"x_max":892,"ha":892,"o":"m 867 655 q 839 654 823 648 q 806 642 792 627 q 781 617 775 605 q 770 592 768 573 q 765 548 765 513 l 765 153 q 765 103 771 79 q 776 54 792 40 q 818 14 867 11 l 867 0 l 555 0 l 555 11 q 583 13 601 19 q 618 26 632 40 q 647 55 653 79 q 658 104 658 153 l 658 590 l 407 0 l 396 0 l 146 581 l 146 153 q 146 103 152 79 q 158 55 173 40 q 187 25 204 19 q 221 13 249 11 l 249 0 l 24 0 l 24 11 q 52 13 69 19 q 86 25 100 40 q 115 55 121 79 q 126 104 126 153 l 126 513 q 126 536 125 556 q 123 592 114 608 q 102 631 80 642 q 59 653 24 655 l 24 667 l 236 667 l 447 145 l 667 667 l 867 667 z"},"g":{"x_min":0,"x_max":412,"ha":412,"o":"m 135 -42 l 126 -44 q 118 -30 110 -25 q 102 -20 89 -20 q 69 -20 56 -35 q 43 -51 43 -76 q 43 -115 83 -141 q 122 -166 184 -166 q 249 -166 289 -138 q 330 -110 330 -65 q 330 -29 303 -10 q 276 10 226 10 l 148 10 q 101 10 71 32 q 41 56 41 88 q 41 123 73 143 q 90 153 134 164 q 91 184 68 216 q 44 248 44 286 q 44 335 81 374 q 103 397 132 410 q 161 422 192 422 q 239 422 288 389 q 311 407 329 415 q 347 422 369 422 q 393 422 407 412 q 425 399 425 381 q 425 370 418 362 q 411 354 401 354 q 385 354 373 371 l 361 386 q 352 397 335 397 q 317 397 297 379 q 336 331 336 280 q 336 216 280 179 q 251 160 219 154 q 209 152 157 149 q 85 145 85 109 q 85 78 146 78 l 227 78 q 269 78 298 70 q 328 62 350 46 q 393 15 393 -43 q 393 -106 343 -142 q 292 -179 192 -179 q 86 -179 42 -136 q 13 -108 13 -66 q 13 -34 34 -11 q 55 12 85 12 q 107 12 121 -1 q 135 -15 135 -36 z m 114 283 q 114 230 136 197 q 158 164 193 164 q 228 164 248 197 q 267 229 267 288 q 267 349 242 385 q 223 412 194 412 q 159 412 137 376 q 126 359 120 333 q 114 308 114 283 z"},"j":{"x_min":0,"x_max":211,"ha":211,"o":"m 153 423 l 153 52 q 153 -12 152 -26 q 149 -77 133 -108 q 99 -173 10 -173 q -37 -173 -65 -157 q -93 -140 -93 -112 q -93 -97 -85 -87 q -77 -78 -63 -78 q -40 -78 -32 -106 l -25 -129 q -15 -163 19 -163 q 36 -163 49 -154 q 62 -145 69 -127 q 75 -115 77 -88 q 80 -61 80 -16 l 80 289 q 80 344 62 367 q 45 391 4 391 l 4 403 z m 114 598 q 95 598 83 610 q 70 622 70 641 q 70 659 83 671 q 96 684 114 684 q 133 684 146 671 q 158 659 158 641 q 158 622 146 610 q 133 598 114 598 z"},"i":{"x_min":0,"x_max":242,"ha":242,"o":"m 19 406 l 159 423 l 159 141 l 159 104 q 159 71 163 55 q 167 40 178 30 q 192 17 229 10 l 229 0 l 13 0 l 13 10 q 42 14 55 21 q 68 28 76 45 q 81 56 83 79 q 85 102 85 145 l 85 265 q 85 315 83 336 q 81 356 72 369 q 64 382 52 388 q 41 395 19 396 z m 120 598 q 101 598 89 610 q 76 622 76 641 q 76 659 89 671 q 102 684 120 684 q 139 684 151 671 q 164 659 164 641 q 164 622 152 610 q 139 598 120 598 z"},"y":{"x_min":0,"x_max":418,"ha":418,"o":"m -1 415 l 188 415 l 188 405 q 167 402 159 397 q 140 386 140 364 q 140 344 160 294 l 242 84 l 313 261 q 339 327 339 354 q 339 376 327 389 q 315 402 292 405 l 292 415 l 431 415 l 431 405 q 410 399 400 393 q 390 386 381 373 q 367 351 336 276 l 194 -67 q 169 -129 153 -147 q 127 -178 86 -178 q 61 -178 45 -168 q 29 -158 29 -142 q 29 -129 38 -122 q 47 -114 62 -114 q 75 -114 92 -121 q 108 -127 113 -129 q 117 -130 124 -130 q 154 -130 173 -85 l 188 -48 q 198 -24 198 -12 q 198 6 179 51 l 78 295 l 63 330 q 50 361 42 375 q 35 388 28 394 q 16 403 -1 405 z"},"@":{"x_min":0,"x_max":746,"ha":746,"o":"m 600 83 l 615 61 q 589 38 560 23 q 521 4 478 -6 q 434 -17 393 -17 q 333 -17 275 5 q 171 43 109 133 q 47 222 47 333 q 47 412 79 482 q 112 553 171 602 q 218 641 275 662 q 333 683 392 683 q 458 683 521 657 q 583 630 625 584 q 661 545 680 495 q 699 445 699 391 q 699 329 676 277 q 652 225 608 190 q 578 167 541 154 q 505 142 469 142 q 404 142 404 195 q 404 212 412 243 l 408 245 q 381 195 348 169 q 315 143 279 143 q 240 143 214 170 q 187 198 187 250 q 187 299 211 354 q 236 408 280 453 q 312 486 347 505 q 381 523 412 523 q 435 523 451 512 q 467 501 475 480 l 480 479 l 493 520 l 546 519 l 484 309 q 475 277 468 241 q 460 206 460 189 q 460 178 467 173 q 474 168 489 168 q 517 168 548 184 q 579 199 604 226 q 666 292 666 385 q 666 450 643 500 q 619 550 570 590 q 493 653 393 653 q 333 653 277 630 q 187 594 134 514 q 80 434 80 334 q 80 258 111 193 q 143 127 201 81 q 243 48 293 31 q 344 13 396 13 q 506 13 600 83 z m 460 459 q 460 480 449 493 q 437 506 417 506 q 371 506 314 414 q 284 365 266 313 q 248 260 248 221 q 248 164 292 164 q 317 164 345 190 q 374 215 398 261 q 421 303 441 363 q 460 422 460 459 z"},".":{"x_min":0,"x_max":244,"ha":244,"o":"m 122 110 q 146 110 164 93 q 181 76 181 51 q 181 26 164 9 q 146 -8 122 -8 q 98 -8 80 9 q 63 26 63 51 q 63 76 80 93 q 98 110 122 110 z"},"p":{"x_min":0,"x_max":524,"ha":524,"o":"m 162 41 l 163 -49 l 163 -83 q 163 -116 167 -131 q 170 -146 182 -157 q 195 -170 232 -177 l 232 -187 l 17 -187 l 17 -177 q 46 -173 59 -166 q 71 -159 79 -142 q 84 -131 87 -108 q 89 -85 89 -42 l 89 295 q 89 350 72 374 q 54 397 13 397 l 13 409 l 155 429 q 161 406 161 386 l 161 377 q 197 401 229 412 q 260 422 297 422 q 372 422 424 378 q 458 350 476 307 q 494 265 494 213 q 494 160 474 114 q 455 68 419 39 q 364 -9 287 -9 q 250 -9 224 2 q 197 13 162 41 z m 162 203 q 162 136 168 102 q 174 67 189 46 q 203 28 225 17 q 247 5 270 5 q 322 5 360 54 q 384 83 396 124 q 409 164 409 207 q 409 249 397 289 q 385 330 364 358 q 327 408 274 408 q 249 408 226 396 q 203 383 189 361 q 174 337 168 302 q 162 268 162 203 z"},"X":{"x_min":0,"x_max":724,"ha":724,"o":"m 13 667 l 335 667 l 335 655 q 301 655 283 649 q 254 640 254 614 q 254 587 294 529 l 379 404 l 454 497 q 498 551 511 573 q 524 594 524 613 q 524 639 497 648 q 484 653 453 655 l 453 667 l 677 667 l 677 655 q 640 655 619 646 q 587 631 535 564 l 498 518 l 392 386 l 560 137 q 604 70 640 41 q 659 25 677 19 q 694 13 724 11 l 724 0 l 385 0 l 385 11 q 425 16 443 25 q 472 40 472 66 q 472 75 466 87 q 460 100 444 124 l 325 305 l 208 163 q 182 130 170 109 q 159 87 159 68 q 159 42 178 28 q 198 13 237 11 l 237 0 l 0 0 l 0 11 q 27 16 45 25 q 62 34 86 57 q 122 89 186 167 l 312 322 l 161 549 l 135 586 q 107 628 87 640 q 70 651 28 654 q 23 654 13 655 z"},"*":{"x_min":0,"x_max":492,"ha":492,"o":"m 246 675 q 258 675 266 670 q 273 665 273 656 q 273 645 268 626 l 260 597 q 255 580 255 574 q 255 566 261 565 q 264 565 279 574 q 294 583 311 595 q 331 609 343 609 q 353 609 360 599 q 367 589 367 575 q 367 553 325 553 l 294 551 q 265 551 264 542 q 264 536 308 502 q 333 483 333 473 q 333 462 322 452 q 312 442 302 442 q 292 442 286 449 q 279 456 272 476 l 262 504 q 252 531 246 531 q 239 531 229 504 l 219 476 q 212 457 206 449 q 200 442 191 442 q 180 442 169 452 q 159 462 159 472 q 159 483 183 502 q 227 536 227 542 q 228 546 219 549 q 210 551 197 551 l 167 553 q 125 553 125 576 q 125 589 131 599 q 138 609 147 609 q 160 609 180 595 q 199 582 206 578 l 226 567 l 229 565 q 236 565 236 576 q 236 581 231 597 l 223 626 q 218 645 218 655 q 218 664 226 670 q 233 675 246 675 z"},"Y":{"x_min":0,"x_max":657,"ha":657,"o":"m 183 0 l 183 11 q 211 13 229 19 q 246 25 260 40 q 275 55 280 79 q 286 103 286 153 l 286 249 q 286 269 278 294 q 269 323 240 366 l 113 556 l 91 590 q 66 627 42 641 q 30 648 18 651 q 5 654 -17 655 l -17 667 l 302 667 l 302 655 q 261 653 250 648 q 223 636 223 605 q 223 594 229 580 q 235 566 249 544 l 381 337 l 494 514 l 507 534 q 525 562 525 590 q 525 621 505 638 q 485 655 449 655 l 449 667 l 673 667 l 673 655 q 648 652 634 647 q 621 641 606 628 q 573 597 533 535 l 421 365 q 401 335 397 321 q 393 307 393 273 l 393 153 q 393 101 398 78 q 403 56 418 40 q 445 11 495 11 l 495 0 z"},"c":{"x_min":0,"x_max":416,"ha":416,"o":"m 378 92 l 388 89 q 371 37 336 14 q 301 -9 239 -9 q 141 -9 84 50 q 30 107 30 195 q 30 238 45 280 q 60 322 86 352 q 116 386 159 404 q 203 422 254 422 q 325 422 365 391 q 389 371 389 348 q 389 332 379 322 q 369 311 354 311 q 322 311 307 357 q 300 379 296 387 q 292 395 284 400 q 269 412 247 412 q 218 412 194 396 q 172 381 157 360 q 143 339 131 307 q 114 257 114 210 q 114 167 130 125 q 146 83 172 56 q 214 12 271 12 q 318 12 349 42 q 364 57 378 92 z"},"!":{"x_min":0,"x_max":256,"ha":256,"o":"m 131 171 l 123 171 l 77 536 q 71 581 71 605 q 71 637 87 655 q 103 673 131 673 q 158 673 174 656 q 190 638 190 607 q 190 586 184 545 z m 126 110 q 150 110 168 93 q 185 76 185 51 q 185 26 168 9 q 150 -8 126 -8 q 102 -8 84 9 q 67 26 67 51 q 67 76 84 93 q 102 110 126 110 z"},"/":{"x_min":0,"x_max":293,"ha":293,"o":"m -32 -120 l 268 697 l 299 697 l -1 -120 z"},"[":{"x_min":0,"x_max":293,"ha":293,"o":"m 115 697 l 261 697 l 261 684 q 220 681 190 668 l 190 -92 q 220 -104 261 -107 l 261 -120 l 115 -120 z"},"6":{"x_min":0,"x_max":492,"ha":492,"o":"m 129 379 q 162 406 192 418 q 222 430 255 430 q 293 430 331 413 q 387 387 420 335 q 452 283 452 217 q 452 169 435 126 q 418 83 387 51 q 329 -9 247 -9 q 149 -9 92 73 q 40 147 40 267 q 40 363 72 448 q 103 534 161 595 q 200 636 241 656 q 282 675 329 675 q 380 675 414 655 q 447 635 447 605 q 447 589 438 578 q 428 568 414 568 q 403 568 395 572 q 386 577 381 586 q 375 594 367 617 q 357 641 344 651 q 331 662 308 662 q 244 662 193 580 q 142 497 129 379 z m 120 209 q 120 117 154 61 q 189 3 243 3 q 270 3 293 19 q 317 35 335 64 q 353 93 363 136 q 374 180 374 222 q 374 266 363 306 q 352 347 333 374 q 300 418 247 418 q 201 418 169 380 q 146 352 133 307 q 120 263 120 209 z"},"r":{"x_min":0,"x_max":348,"ha":348,"o":"m 152 347 q 170 378 192 394 q 232 422 284 422 q 316 422 333 408 q 348 396 348 377 q 348 363 339 354 q 330 346 315 346 q 299 346 287 359 l 271 376 q 253 395 229 395 q 196 395 177 352 q 159 309 159 232 l 159 141 l 159 104 q 159 71 163 55 q 167 40 178 30 q 192 17 229 10 l 229 0 l 13 0 l 13 10 q 42 14 55 21 q 68 28 76 45 q 81 56 83 79 q 85 102 85 145 l 85 265 q 85 315 83 336 q 81 356 72 369 q 64 382 52 388 q 41 395 19 396 l 19 406 l 144 423 q 152 379 152 347 z"},"2":{"x_min":0,"x_max":492,"ha":492,"o":"m 415 0 l 36 0 l 36 10 q 96 63 156 128 q 216 194 259 252 q 320 334 346 394 q 373 454 373 505 q 373 575 328 624 q 291 664 238 664 q 193 664 159 635 q 135 617 123 587 q 110 558 110 523 q 110 467 148 430 q 165 413 185 404 q 205 395 225 395 q 229 395 237 396 l 240 387 q 204 369 178 369 q 136 369 104 399 q 83 418 73 445 q 62 473 62 504 q 62 579 116 626 q 171 675 256 675 q 302 675 341 660 q 380 645 407 616 q 431 590 443 556 q 456 522 456 485 q 456 412 405 335 q 380 298 345 262 q 310 227 247 174 q 167 108 132 77 l 309 77 q 353 77 372 82 q 396 89 413 107 q 432 127 443 164 l 454 162 z"},"{":{"x_min":0,"x_max":293,"ha":293,"o":"m 38 297 l 38 307 q 64 311 82 322 q 97 331 104 346 q 110 361 110 389 l 109 438 l 108 517 q 108 593 118 625 q 127 653 146 670 q 165 687 194 691 q 217 696 237 696 l 257 696 l 265 697 l 265 683 q 244 682 233 678 q 222 674 211 665 q 198 653 191 639 q 185 625 183 603 q 181 587 181 537 l 182 447 q 182 390 177 369 q 172 348 156 331 q 137 310 104 304 l 104 300 q 133 296 152 277 q 167 262 174 241 q 181 221 181 188 l 181 138 l 181 35 q 181 -20 186 -42 q 190 -65 205 -81 q 215 -93 231 -100 q 248 -107 265 -107 l 265 -120 l 254 -120 q 201 -120 171 -108 q 138 -96 123 -63 q 107 -31 107 24 l 107 77 l 109 158 l 110 216 q 110 255 94 273 q 78 292 38 297 z"},"9":{"x_min":0,"x_max":492,"ha":492,"o":"m 363 288 q 331 261 300 249 q 270 237 236 237 q 199 237 162 254 q 104 280 72 332 q 40 384 40 449 q 40 498 57 541 q 74 584 105 616 q 163 675 245 675 q 343 675 400 593 q 452 519 452 400 q 452 303 421 218 q 389 133 331 71 q 292 30 251 11 q 210 -9 163 -9 q 112 -9 78 11 q 45 31 45 62 q 45 78 54 88 q 64 99 79 99 q 88 99 97 95 q 106 90 112 81 q 117 73 125 51 q 134 27 148 17 q 161 6 184 6 q 248 6 298 88 q 350 171 363 288 z m 372 458 q 372 549 338 605 q 303 663 249 663 q 222 663 198 647 q 175 632 157 603 q 139 573 128 530 q 118 487 118 445 q 118 402 129 362 q 140 321 159 295 q 192 251 245 251 q 291 251 323 289 q 347 317 359 361 q 372 405 372 458 z"}," ":{"x_min":0,"x_max":250,"ha":250,"o":""},"I":{"x_min":0,"x_max":360,"ha":360,"o":"m 336 667 l 336 655 q 308 654 291 647 q 273 641 260 627 q 241 607 236 573 q 233 547 233 513 l 233 153 q 233 113 237 89 q 241 66 250 52 q 263 32 283 23 q 303 13 336 11 l 336 0 l 24 0 l 24 11 q 52 13 70 19 q 87 26 100 40 q 116 55 121 79 q 126 103 126 153 l 126 513 q 126 563 121 587 q 116 611 100 627 q 87 641 69 647 q 52 654 24 655 l 24 667 z"},"H":{"x_min":0,"x_max":813,"ha":813,"o":"m 233 356 l 580 356 l 580 513 q 580 563 574 587 q 569 611 554 627 q 540 641 523 647 q 505 654 477 655 l 477 667 l 789 667 l 789 655 q 761 654 744 647 q 727 641 713 627 q 698 611 692 587 q 687 563 687 513 l 687 153 q 687 104 692 80 q 698 56 713 40 q 727 26 744 19 q 761 13 789 11 l 789 0 l 477 0 l 477 11 q 505 13 523 19 q 540 26 554 40 q 569 55 574 79 q 580 103 580 153 l 580 333 l 233 333 l 233 153 q 233 104 239 79 q 245 55 260 40 q 273 26 290 19 q 308 13 336 11 l 336 0 l 24 0 l 24 11 q 52 13 70 19 q 87 26 100 40 q 116 55 121 79 q 126 103 126 153 l 126 513 q 126 563 121 587 q 116 611 100 627 q 87 641 69 647 q 52 654 24 655 l 24 667 l 336 667 l 336 655 q 308 654 291 647 q 273 641 260 627 q 245 611 239 587 q 233 563 233 513 z"},"4":{"x_min":0,"x_max":492,"ha":492,"o":"m 279 159 l 35 159 l 35 169 l 338 668 l 359 668 l 359 176 q 392 176 406 180 q 419 184 430 197 q 438 207 442 219 q 445 230 447 250 l 447 262 l 457 262 l 457 76 l 447 76 q 445 105 441 119 q 438 133 429 142 q 419 152 407 155 q 395 159 370 159 l 359 159 l 359 109 q 359 82 364 64 q 369 47 379 35 q 390 23 402 18 q 415 13 443 10 l 443 0 l 198 0 l 198 10 q 246 14 261 30 q 271 41 275 59 q 279 78 279 112 z m 279 176 l 279 535 l 59 176 z"},"~":{"x_min":0,"x_max":667,"ha":667,"o":"m 528 733 l 543 724 q 519 682 481 655 q 443 628 407 628 l 375 632 q 399 630 407 628 l 363 636 q 354 639 345 642 l 314 651 q 280 663 263 666 q 246 670 228 670 q 204 670 187 660 q 170 650 146 623 l 138 613 l 124 622 q 144 655 172 682 q 191 700 214 709 q 238 719 262 719 q 289 719 352 698 q 405 679 430 679 q 485 679 528 733 z"},"D":{"x_min":0,"x_max":772,"ha":772,"o":"m 24 11 q 52 13 69 19 q 86 25 100 40 q 115 55 121 79 q 126 104 126 153 l 126 513 q 126 567 120 592 q 113 617 94 633 q 70 653 24 655 l 24 667 l 292 667 q 382 667 406 665 q 509 657 581 606 q 649 558 688 479 q 726 401 726 309 q 726 241 704 181 q 682 122 644 82 q 589 26 508 11 q 448 0 385 0 l 24 0 z m 233 651 l 233 166 q 233 118 239 93 q 244 68 259 51 q 290 13 360 13 q 420 13 463 32 q 506 52 540 97 q 573 140 590 195 q 607 250 607 313 q 607 382 586 445 q 565 507 526 554 q 472 619 397 640 q 356 651 292 651 z"},"^":{"x_min":0,"x_max":500,"ha":500,"o":"m 525 286 l 486 286 l 285 596 l 78 286 l -25 286 l 252 700 l 259 700 z"},"0":{"x_min":0,"x_max":492,"ha":492,"o":"m 246 675 q 297 675 341 629 q 363 606 385 570 q 406 534 421 497 q 455 411 455 333 q 455 256 421 170 q 406 132 385 96 q 363 61 341 38 q 296 -9 246 -9 q 195 -9 150 38 q 128 61 107 96 q 85 132 70 170 q 37 257 37 333 q 37 411 70 497 q 85 534 107 570 q 128 606 150 629 q 195 675 246 675 z m 246 664 q 226 664 207 649 q 188 634 174 607 q 163 587 151 553 q 140 520 133 486 q 117 410 117 333 q 117 257 133 181 q 140 146 151 113 q 163 79 174 60 q 189 32 208 18 q 227 3 247 3 q 265 3 284 18 q 303 33 318 60 q 329 79 340 113 q 352 146 358 181 q 375 258 375 333 q 375 409 358 486 q 352 520 340 553 q 329 587 318 607 q 303 634 284 649 q 266 664 246 664 z"},"F":{"x_min":0,"x_max":544,"ha":544,"o":"m 233 348 l 233 153 q 233 104 239 80 q 244 56 259 40 q 272 26 290 19 q 308 13 336 11 l 336 0 l 24 0 l 24 11 q 47 11 68 19 q 89 26 101 39 q 115 54 121 81 q 126 107 126 153 l 126 513 q 126 544 123 578 q 118 621 81 642 q 61 653 24 655 l 24 667 l 534 667 l 548 508 l 537 505 q 525 542 515 561 q 492 604 450 627 q 426 641 395 646 q 364 651 309 651 l 233 651 l 233 363 l 253 363 q 339 363 378 402 q 396 418 404 441 q 413 464 416 500 l 427 500 l 424 204 l 413 204 q 407 254 394 281 q 381 308 355 325 q 335 337 307 343 q 278 348 233 348 z"},"`":{"x_min":0,"x_max":500,"ha":500,"o":"m 307 488 l 283 488 l 126 622 l 217 622 z"},"k":{"x_min":0,"x_max":500,"ha":500,"o":"m 159 197 l 248 294 q 275 325 284 340 q 293 355 293 370 q 293 391 272 399 q 263 403 237 405 l 237 415 l 425 415 l 425 405 q 390 405 368 393 q 346 380 310 342 l 291 320 l 237 263 l 363 121 q 379 104 384 99 l 406 77 q 432 50 444 41 q 456 31 472 22 q 490 12 520 10 l 520 0 l 291 0 l 291 10 q 311 12 319 17 q 331 24 331 37 q 331 51 317 67 l 307 79 l 188 209 l 159 177 l 159 141 l 159 104 q 159 71 163 55 q 167 40 178 30 q 192 17 229 10 l 229 0 l 13 0 l 13 10 q 42 14 55 21 q 68 28 76 45 q 81 56 83 79 q 85 102 85 145 l 85 528 q 85 578 83 598 q 81 619 72 631 q 64 645 52 651 q 41 657 19 658 l 19 668 l 159 686 z"},"u":{"x_min":0,"x_max":512,"ha":512,"o":"m 365 -8 q 358 21 358 52 q 297 -9 214 -9 q 153 -9 116 21 q 80 50 80 104 l 80 274 l 79 311 q 79 344 75 359 q 71 375 61 385 q 46 398 10 405 l 10 415 l 153 415 l 153 167 q 153 115 156 90 q 160 65 170 49 q 181 32 201 23 q 221 13 246 13 q 273 13 297 24 q 321 35 334 53 q 349 72 353 97 q 358 122 358 179 l 358 275 l 357 311 q 357 344 354 359 q 350 375 339 385 q 325 398 288 405 l 288 415 l 431 415 l 431 150 q 431 100 434 79 q 437 59 444 46 q 453 33 465 27 q 477 21 499 19 l 499 9 z"},"]":{"x_min":0,"x_max":293,"ha":293,"o":"m 179 -120 l 32 -120 l 32 -107 q 74 -104 104 -92 l 104 668 q 74 681 32 684 l 32 697 l 179 697 z"},"U":{"x_min":0,"x_max":753,"ha":753,"o":"m 329 667 l 329 655 q 301 654 284 647 q 266 641 253 627 q 237 610 232 586 q 227 562 227 502 l 227 226 q 227 158 232 128 q 237 98 252 73 q 276 34 310 17 q 345 0 397 0 q 448 0 494 15 q 540 30 571 58 q 590 75 599 95 q 608 115 611 146 q 613 166 613 240 l 613 513 q 613 563 607 587 q 602 611 586 627 q 573 641 555 647 q 538 654 510 655 l 510 667 l 735 667 l 735 655 q 708 654 690 647 q 673 641 659 627 q 644 611 638 587 q 633 563 633 513 l 633 205 q 633 137 622 104 q 612 72 581 45 q 509 -17 377 -17 q 239 -17 173 42 q 131 79 123 139 q 120 161 120 217 l 120 513 q 120 563 114 587 q 109 611 93 627 q 80 641 63 647 q 45 654 17 655 l 17 667 z"},"o":{"x_min":0,"x_max":518,"ha":518,"o":"m 30 206 q 30 285 88 347 q 160 422 259 422 q 358 422 429 347 q 487 285 487 206 q 487 127 432 66 q 363 -9 259 -9 q 154 -9 85 66 q 59 96 44 132 q 30 168 30 206 z m 119 211 q 119 126 157 67 q 200 1 262 1 q 288 1 313 16 q 338 31 356 57 q 375 84 387 126 q 398 167 398 206 q 398 246 386 286 q 374 327 353 356 q 312 412 254 412 q 199 412 159 354 q 119 295 119 211 z"},"N":{"x_min":0,"x_max":755,"ha":755,"o":"m 146 578 l 146 153 q 146 103 152 79 q 158 55 173 40 q 187 25 204 19 q 221 13 249 11 l 249 0 l 24 0 l 24 11 q 52 13 69 19 q 86 25 100 40 q 115 55 121 79 q 126 104 126 153 l 126 514 q 126 563 121 587 q 115 611 100 627 q 87 641 70 647 q 52 654 24 655 l 24 667 l 212 667 l 608 161 l 608 513 q 608 563 603 587 q 597 611 582 627 q 568 641 551 647 q 534 654 506 655 l 506 667 l 731 667 l 731 655 q 682 655 655 627 q 640 611 634 587 q 628 563 628 514 l 628 0 l 606 0 z"},"+":{"x_min":0,"x_max":492,"ha":492,"o":"m 230 312 l 32 312 l 32 342 l 230 342 l 230 530 l 261 530 l 261 342 l 459 342 l 459 312 l 261 312 l 261 124 l 230 124 z"},"G":{"x_min":0,"x_max":751,"ha":751,"o":"m 635 667 l 641 454 l 630 453 q 596 562 543 615 q 491 667 416 667 q 358 667 316 644 q 274 620 238 567 q 165 458 165 318 q 165 251 183 192 q 200 132 234 87 q 299 -1 394 -1 q 431 -1 463 15 q 496 30 517 58 q 546 96 546 148 q 546 196 520 218 q 494 239 434 239 l 434 250 l 745 250 l 745 239 q 702 235 685 227 q 667 219 659 200 q 650 178 650 114 q 650 97 652 60 l 653 48 q 634 55 625 55 q 615 55 598 44 q 556 15 500 -1 q 443 -17 381 -17 q 295 -17 226 13 q 157 42 114 97 q 82 138 64 194 q 47 251 47 314 q 47 402 78 477 q 109 552 166 601 q 212 641 273 662 q 333 684 401 684 q 440 684 473 676 q 507 669 544 652 l 573 639 q 584 635 593 635 q 612 635 623 667 z"},"q":{"x_min":0,"x_max":506,"ha":506,"o":"m 429 435 l 429 -83 q 429 -116 433 -131 q 437 -146 448 -157 q 462 -170 499 -177 l 499 -187 l 283 -187 l 283 -177 q 312 -173 325 -166 q 338 -159 346 -142 q 351 -131 354 -108 q 356 -85 356 -42 l 356 52 q 335 27 316 15 q 279 -9 227 -9 q 153 -9 98 38 q 30 97 30 202 q 30 302 88 362 q 146 422 243 422 q 283 422 312 410 l 337 398 q 347 395 355 395 q 380 395 399 435 z m 356 200 q 356 253 350 297 q 344 340 335 360 q 323 385 301 398 q 279 412 250 412 q 194 412 157 361 q 137 333 125 294 q 114 255 114 211 q 114 165 127 124 q 140 83 163 53 q 182 29 204 17 q 226 4 250 4 q 278 4 302 22 q 326 39 338 67 q 356 108 356 200 z"},"d":{"x_min":0,"x_max":524,"ha":524,"o":"m 368 -16 q 363 8 363 35 q 327 12 295 1 q 263 -9 227 -9 q 152 -9 100 36 q 66 64 48 107 q 30 149 30 200 q 30 254 49 300 q 69 345 104 375 q 160 422 236 422 q 273 422 300 412 q 326 401 361 373 l 361 554 q 361 607 344 630 q 326 654 286 654 l 286 666 l 435 685 l 435 119 q 435 63 452 40 q 470 17 510 17 l 510 4 z m 361 211 q 361 279 355 313 q 350 347 334 368 q 321 387 299 398 q 277 409 253 409 q 201 409 163 360 q 140 331 127 291 q 114 250 114 207 q 114 165 126 125 q 139 84 160 56 q 196 6 250 6 q 275 6 298 19 q 321 31 335 54 q 350 77 355 112 q 361 146 361 211 z"},"1":{"x_min":0,"x_max":492,"ha":492,"o":"m 274 667 l 285 667 l 285 131 q 285 93 292 70 q 298 46 312 34 q 335 14 387 10 l 387 0 l 105 0 l 105 10 q 138 12 154 18 q 170 23 183 37 q 196 51 200 70 q 205 89 205 128 l 205 594 q 179 591 166 591 q 130 591 107 598 l 107 607 l 119 607 q 156 607 190 619 q 224 632 263 660 z"},"5":{"x_min":0,"x_max":492,"ha":492,"o":"m 132 309 l 220 668 q 289 651 347 651 q 383 651 404 655 q 424 659 443 668 q 438 645 431 629 q 423 614 409 602 q 383 580 329 580 q 289 580 220 593 l 167 379 q 193 399 214 406 q 234 414 264 414 q 339 414 390 360 q 413 335 425 303 q 438 271 438 238 q 438 187 414 135 q 382 66 326 29 q 270 -9 196 -9 q 157 -9 121 3 q 85 14 62 34 q 43 50 32 71 q 22 92 22 115 q 22 137 34 152 q 47 166 66 166 q 82 166 92 155 q 102 144 102 126 q 102 119 101 106 q 99 96 99 86 q 99 49 124 26 q 149 3 190 3 q 258 3 303 64 q 326 97 339 144 q 353 190 353 239 q 353 313 324 358 q 295 402 247 402 q 214 402 189 379 q 164 355 148 309 z"}}}
